# xmcd CD database file
#
# Track frame offsets:
#	150
#	27672
#	67165
#	96342
#	125465
#	147032
#	172125
#	209037
#
# Disc length: 3065 seconds
#
# Revision: 0
# Processed by: cddbd v1.5PL3 Copyright (c) Steve Scherf et al.
# Submitted via: CDex 1.50
#
DISCID=820bf708
DTITLE=ERIC MIYASHIRO - CITY OF BRASS
DYEAR=2003
DGENRE=Jazz
TTITLE0=Basara
TTITLE1=Fluffy
TTITLE2=Bass Flux
TTITLE3=Ken's Bar
TTITLE4=Loop pooL
TTITLE5=Kokopelli II (In the City of Brass)
TTITLE6=The Warriors
TTITLE7=The Star Spangled Banner
EXTD=YEAR: 2003
EXTT0=
EXTT1=
EXTT2=
EXTT3=
EXTT4=
EXTT5=
EXTT6=
EXTT7=
PLAYORDER=
